<?xml version="1.0" encoding="UTF-8"?>
<svg width="51px" height="45px" viewBox="0 0 51 45" version="1.1" xmlns="http://www.w3.org/2000/svg" xmlns:xlink="http://www.w3.org/1999/xlink">
    <!-- Generator: Sketch 53.2 (72643) - https://sketchapp.com -->
    <title>Flower</title>
    <desc>Created with Sketch.</desc>
    <g id="Home-Page" stroke="none" stroke-width="1" fill="none" fill-rule="evenodd">
        <g id="Home-Page-Copy" transform="translate(-419.000000, -2261.000000)" fill="#00A5A4" fill-rule="nonzero">
            <g id="Uniquely-Placidity" transform="translate(-24.000000, 2132.000000)">
                <g id="Flower" transform="translate(443.000000, 129.000000)">
                    <path d="M25.3380952,35.4193548 C18.2142857,35.4193548 12.3857143,30.2984843 12.3857143,24.0396424 C12.3857143,16.7850758 24.2047619,1.49358725 24.6904762,0.85347843 L25.3380952,-1.3500312e-13 L25.9857143,0.85347843 C26.4714286,1.49358725 38.2904762,16.7850758 38.2904762,24.0396424 C38.2904762,30.2984843 32.4619048,35.4193548 25.3380952,35.4193548 Z M25.3380952,2.56043529 C22.8285714,5.97434901 14.0047619,18.2075398 14.0047619,24.0396424 C14.0047619,29.516129 19.1047619,33.9968908 25.3380952,33.9968908 C31.5714286,33.9968908 36.6714286,29.516129 36.6714286,24.0396424 C36.6714286,18.2075398 27.847619,5.97434901 25.3380952,2.56043529 Z" id="Shape"></path>
                    <path d="M19.8333333,35.5645161 C18.2142857,35.5645161 16.0285714,35.1290323 14.0857143,34.0403226 C12.2238095,33.0241935 9.7952381,31.0645161 9.14761905,27.5080645 C8.33809524,23.1532258 8.33809524,7.04032258 8.33809524,6.31451613 L8.33809524,5.22580645 L9.47142857,5.73387097 C9.71428571,5.80645161 15.2190476,8.34677419 19.2666667,10.8870968 L18.3761905,12.0483871 C15.5428571,10.233871 11.8190476,8.41935484 9.95714286,7.5483871 C9.95714286,11.4677419 10.1190476,23.733871 10.7666667,27.2903226 C11.3333333,30.3387097 13.3571429,31.9354839 14.8952381,32.8064516 C17.3238095,34.1129032 19.9952381,34.2580645 21.047619,33.9677419 L21.5333333,35.3467742 C21.1285714,35.4919355 20.4809524,35.5645161 19.8333333,35.5645161 Z" id="Path"></path>
                    <path d="M13.1142857,36.5806452 C11.7380952,36.5806452 10.4428571,36.3629032 9.22857143,35.9274194 C7.2047619,35.1290323 4.53333333,33.3145161 3.48095238,29.0322581 L-1.36779477e-13,14.8790323 L1.21428571,15.0967742 C1.2952381,15.0967742 5.74761905,15.9677419 9.30952381,16.5483871 L9.06666667,18 C6.63809524,17.6370968 3.8047619,17.0564516 2.18571429,16.766129 L5.1,28.7419355 C5.82857143,31.6451613 7.44761905,33.6774194 9.87619048,34.6209677 C12.6285714,35.6370968 15.7047619,35.1290323 17.647619,34.1129032 L18.4571429,35.3467742 C16.8380952,36.1451613 14.9761905,36.5806452 13.1142857,36.5806452 Z" id="Path"></path>
                    <path d="M16.4333333,41.2258065 C8.9047619,41.2258065 3.96666667,37.5967742 3.8047619,37.4516129 L2.59047619,36.5080645 L10.6047619,34.6935484 L11.0095238,36.0725806 L6.31428571,37.1612903 C8.0952381,38.1774194 11.8190476,39.7741935 16.4333333,39.7741935 C19.9142857,39.7741935 22.3428571,39.1209677 23.6380952,37.8145161 C24.6904762,36.7258065 24.5285714,35.5645161 24.5285714,35.4919355 L26.147619,35.2741935 C26.147619,35.3467742 26.3904762,37.0887097 24.852381,38.6854839 C23.3142857,40.4274194 20.4,41.2258065 16.4333333,41.2258065 Z" id="Path"></path>
                    <path d="M30.8428571,35.5645161 C30.1952381,35.5645161 29.547619,35.4919355 29.1428571,35.3467742 L29.6285714,33.9677419 C30.6809524,34.2580645 33.352381,34.1129032 35.7809524,32.8064516 C37.4,31.9354839 39.3428571,30.266129 39.9095238,27.2903226 C40.5571429,23.733871 40.7190476,11.4677419 40.7190476,7.5483871 C38.8571429,8.41935484 35.1333333,10.233871 32.3,12.0483871 L31.4095238,10.8870968 C35.4571429,8.34677419 40.9619048,5.87903226 41.2047619,5.73387097 L42.3380952,5.22580645 L42.3380952,6.38709677 C42.3380952,7.04032258 42.3380952,23.2258065 41.5285714,27.5806452 C40.8809524,31.1370968 38.452381,33.0967742 36.5904762,34.1129032 C34.647619,35.1290323 32.4619048,35.5645161 30.8428571,35.5645161 Z" id="Path"></path>
                    <path d="M37.5619048,36.5806452 C35.7,36.5806452 33.8380952,36.1451613 32.2190476,35.2741935 L33.0285714,34.0403226 C34.8904762,35.0564516 38.047619,35.6370968 40.8,34.5483871 C43.2285714,33.6048387 44.847619,31.5725806 45.5761905,28.6693548 L48.5714286,16.6935484 C46.952381,16.983871 44.1190476,17.5645161 41.6904762,17.9274194 L41.447619,16.4758065 C44.9285714,15.8951613 49.4619048,15.0241935 49.5428571,15.0241935 L50.7571429,14.8064516 L47.1952381,29.0322581 C46.1428571,33.3145161 43.4714286,35.1290323 41.447619,35.9274194 C40.2333333,36.3629032 38.9380952,36.5806452 37.5619048,36.5806452 Z" id="Path"></path>
                    <path d="M34.2428571,41.2258065 C30.2761905,41.2258065 27.3619048,40.4274194 25.8238095,38.7580645 C24.2857143,37.1612903 24.5285714,35.4193548 24.5285714,35.3467742 L26.147619,35.5645161 L25.3380952,35.4193548 L26.147619,35.4919355 C26.147619,35.5645161 25.9857143,36.7258065 27.0380952,37.8145161 C28.3333333,39.1209677 30.7619048,39.7741935 34.2428571,39.7741935 C38.9380952,39.7741935 42.5809524,38.1774194 44.4428571,37.1612903 L39.747619,36.1451613 L40.152381,34.766129 L48.1666667,36.5806452 L46.952381,37.5241935 C46.7095238,37.5967742 41.7714286,41.2258065 34.2428571,41.2258065 Z" id="Path"></path>
                    <rect id="Rectangle" x="22.9095238" y="39.0483871" width="1.61904762" height="5.80645161"></rect>
                    <rect id="Rectangle" x="26.147619" y="39.0483871" width="1.61904762" height="5.80645161"></rect>
                    <path d="M25.3380952,33.2419355 C20.4,33.2419355 16.4333333,29.3225806 16.4333333,24.5322581 L18.052381,24.5322581 C18.052381,28.5241935 21.2904762,31.7903226 25.3380952,31.7903226 L25.3380952,33.2419355 Z" id="Path"></path>
                    <rect id="Rectangle" x="24.5285714" y="23.0806452" width="1.61904762" height="1.4516129"></rect>
                    <rect id="Rectangle" x="27.7666667" y="23.0806452" width="1.61904762" height="1.4516129"></rect>
                    <rect id="Rectangle" x="21.2904762" y="23.0806452" width="1.61904762" height="1.4516129"></rect>
                    <rect id="Rectangle" x="26.147619" y="25.983871" width="1.61904762" height="1.4516129"></rect>
                    <rect id="Rectangle" x="22.9095238" y="25.983871" width="1.61904762" height="1.4516129"></rect>
                </g>
            </g>
        </g>
    </g>
</svg>