<?xml version="1.0" encoding="UTF-8"?>
<svg width="64px" height="49px" viewBox="0 0 64 49" version="1.1" xmlns="http://www.w3.org/2000/svg" xmlns:xlink="http://www.w3.org/1999/xlink">
    <!-- Generator: Sketch 52 (66869) - http://www.bohemiancoding.com/sketch -->
    <title>Shape Copy 3</title>
    <desc>Created with Sketch.</desc>
    <g id="Hi-Fi-Handover" stroke="none" stroke-width="1" fill="none" fill-rule="evenodd">
        <g id="Hi-fi-Handover" transform="translate(-1017.000000, -2195.000000)" fill="#000000" fill-rule="nonzero">
            <g id="4-Reasons" transform="translate(-63.000000, 1816.000000)">
                <path d="M1142.40582,381.758625 L1130.17112,381.758625 C1129.14996,381.779886 1128.15143,381.471145 1127.33891,380.882914 L1127.33692,380.881403 C1125.61021,379.659501 1123.51477,378.999683 1121.36199,379 C1119.45888,379.051972 1117.61966,379.664015 1116.09812,380.751672 C1115.33324,381.279236 1114.67957,381.938808 1114.1712,382.695999 C1113.66539,383.4461 1113.39121,384.316049 1113.37984,385.206907 L1113.37993,385.216562 L1113.38138,385.312197 L1113.38155,385.320617 C1113.38408,385.411707 1113.38535,385.502459 1113.38536,385.592873 C1113.40444,387.449161 1112.82088,389.265902 1111.71419,390.795564 C1106.20618,388.292187 1100.24633,386.810192 1094.15408,386.429012 L1093.54407,386.391219 L1093.51857,386.389661 L1083.68964,385.780777 C1083.37621,385.761356 1083.08521,385.935789 1082.96863,386.212978 C1082.85204,386.490168 1082.93632,386.80718 1083.17747,386.998455 L1089.99891,392.409415 L1080.63832,393.487762 C1080.3265,393.523706 1080.07442,393.746239 1080.01372,394.039137 C1079.95303,394.332035 1080.0975,394.628795 1080.3717,394.774426 L1099.30607,404.830601 L1099.30979,404.832574 L1100.93458,405.695492 C1100.3864,406.809191 1099.87166,407.9394 1099.41434,409.095408 L1099.41524,409.093133 C1098.1483,412.265431 1096.54838,415.308381 1094.63969,418.175906 L1088.82038,426.906865 C1088.61612,427.213348 1088.69662,427.617834 1089.00456,427.832238 C1089.31249,428.046641 1089.74255,427.997647 1089.98845,427.72015 L1096.69007,420.156834 C1099.74963,416.703515 1103.99557,414.389742 1108.67698,413.624712 C1116.96344,412.266444 1123.22004,405.731905 1123.86344,397.763624 C1124.11403,394.685185 1125.29023,391.740044 1127.252,389.278886 L1130.53673,385.170872 C1130.71846,384.943412 1130.97761,384.782932 1131.26995,384.716816 L1131.27191,384.71652 L1142.51238,383.130448 C1142.88826,383.077367 1143.15739,382.757679 1143.12941,382.397505 C1143.10143,382.037332 1142.78583,381.758671 1142.40582,381.758625 Z M1107.74875,393.15803 C1107.73905,393.154327 1107.73267,393.146541 1107.72275,393.143217 C1107.69568,393.137953 1107.66829,393.134268 1107.64075,393.132182 C1105.57124,392.680911 1103.47255,392.360398 1101.35846,392.172746 C1101.29502,392.159254 1101.22992,392.154149 1101.165,392.157574 C1099.7273,392.03407 1098.28442,391.956242 1096.83723,391.956242 C1096.54363,391.956242 1096.24976,391.96369 1095.95599,391.968828 L1094.50974,387.843994 C1100.14112,388.246676 1105.64843,389.619752 1110.76263,391.896146 C1110.23435,392.42534 1109.72544,392.965527 1109.22775,393.512486 C1108.73629,393.387907 1108.24378,393.26761 1107.74875,393.15803 Z M1105.72721,395.820897 C1105.58434,396.063592 1105.31406,396.213398 1105.02145,396.21207 C1104.74103,396.217304 1104.48195,396.070288 1104.35378,395.833187 L1104.35305,395.831966 C1103.91894,395.095216 1103.4267,394.390802 1102.88054,393.724776 C1104.08997,393.875011 1105.29298,394.065563 1106.48655,394.305467 C1106.26938,394.82618 1106.0157,395.33246 1105.72721,395.820897 Z M1092.94216,387.736208 L1094.44328,392.017594 C1093.62577,392.056316 1092.80854,392.11498 1091.9916,392.193587 L1085.81587,387.294772 L1092.94216,387.736208 Z M1090.07172,393.790445 L1096.83229,401.936755 L1083.02285,394.602467 L1090.07172,393.790445 Z M1131.05878,383.352152 L1131.06073,383.351897 C1130.42305,383.463654 1129.84823,383.787942 1129.43963,384.266457 L1129.40479,384.30674 L1126.09614,388.444678 L1126.09566,388.445312 C1123.96557,391.117281 1122.68848,394.31484 1122.41649,397.657134 C1121.82439,404.996004 1116.06213,411.014558 1108.43024,412.265476 C1103.49251,413.07526 1099.00532,415.493226 1095.73881,419.104377 L1095.8658,418.913818 C1097.82661,415.967998 1099.47025,412.841979 1100.77185,409.583085 L1100.77274,409.580809 C1101.20668,408.483863 1101.69571,407.409682 1102.2154,406.349307 C1104.28567,407.259136 1106.74483,406.574293 1107.97104,404.746443 L1110.05724,401.6629 C1111.33698,399.768643 1113.80617,398.941417 1116.05288,399.654248 C1116.29899,399.732822 1116.57053,399.680442 1116.76493,399.516889 C1116.95933,399.353336 1117.04698,399.103534 1116.99478,398.861822 C1116.94258,398.62011 1116.75847,398.423322 1116.512,398.345777 C1113.63584,397.433447 1110.47499,398.492294 1108.83642,400.917002 L1106.75031,404.000503 C1105.85499,405.325779 1104.02893,405.759705 1102.5827,404.99085 L1100.13753,403.692227 L1091.76479,393.603245 L1091.82671,393.597038 L1091.82922,393.596783 C1093.49242,393.42439 1095.16418,393.337174 1096.83724,393.335513 C1098.18017,393.335513 1099.51906,393.4069 1100.85371,393.516597 C1101.68983,394.438172 1102.43345,395.43202 1103.07489,396.485167 L1103.07417,396.483946 C1103.45615,397.168461 1104.20622,397.595013 1105.02147,397.591341 C1105.83231,397.59185 1106.58128,397.179442 1106.9841,396.51065 L1106.98459,396.50985 C1107.3435,395.902532 1107.65465,395.270812 1107.91548,394.61986 C1110.9391,395.317199 1113.88166,396.300495 1116.69914,397.555038 C1116.93372,397.659953 1117.20937,397.637963 1117.42225,397.497349 C1117.63514,397.356736 1117.75293,397.118863 1117.73124,396.873335 C1117.70956,396.627806 1117.55169,396.411924 1117.31712,396.307008 L1117.31708,396.307008 C1115.20344,395.36746 1113.02062,394.575458 1110.78592,393.937287 C1111.17377,393.521279 1111.55489,393.098451 1111.95903,392.698016 L1111.96054,392.696547 C1112.10382,392.553719 1112.23048,392.400684 1112.36291,392.251153 C1112.47951,392.187847 1112.57467,392.094228 1112.63721,391.981297 C1112.6463,391.96387 1112.64492,391.944966 1112.65232,391.927208 C1114.09543,390.102445 1114.86337,387.875471 1114.83662,385.59288 C1114.83662,385.4927 1114.83522,385.392673 1114.83241,385.292797 L1114.83245,385.292797 L1114.83117,385.2063 C1114.84266,384.572011 1115.04165,383.953583 1115.40539,383.421669 C1116.05562,382.493754 1116.94837,381.742324 1117.99614,381.241025 C1119.03038,380.70433 1120.18404,380.408974 1121.36199,380.379313 C1123.18556,380.381669 1124.9611,380.935122 1126.43192,381.95966 L1126.42993,381.95815 C1127.49987,382.743726 1128.81928,383.159804 1130.17112,383.137938 L1132.57709,383.137938 L1131.05878,383.352152 Z" id="Shape-Copy-3"></path>
            </g>
        </g>
    </g>
</svg>