<?xml version="1.0" encoding="UTF-8"?>
<svg width="71px" height="53px" viewBox="0 0 71 53" version="1.1" xmlns="http://www.w3.org/2000/svg" xmlns:xlink="http://www.w3.org/1999/xlink">
    <!-- Generator: Sketch 52 (66869) - http://www.bohemiancoding.com/sketch -->
    <title>XMLID_1546_</title>
    <desc>Created with Sketch.</desc>
    <g id="Hi-Fi-Handover" stroke="none" stroke-width="1" fill="none" fill-rule="evenodd">
        <g id="Hi-fi-Handover" transform="translate(-1027.000000, -1820.000000)" fill="#231F20" fill-rule="nonzero">
            <g id="4-Reasons" transform="translate(-63.000000, 1816.000000)">
                <path d="M1155.66478,9.10255757 C1152.44168,9.26372494 1142.20711,11.3284208 1134.41412,13.487221 L1135.05849,12.0698374 L1136.80592,11.7023121 C1137.20018,11.6192536 1137.45256,11.2321263 1137.36986,10.8378663 C1137.28716,10.442891 1136.89718,10.190868 1136.50505,10.2735689 L1134.39616,10.71702 C1134.16873,10.7647877 1133.97837,10.9177127 1133.88213,11.1294584 L1132.57142,14.013373 C1131.19712,14.4185035 1129.93838,14.8213635 1128.8518,15.2109438 C1128.83492,14.6973122 1128.81357,14.2241842 1128.79124,13.81379 L1132.17676,10.7836815 C1132.42486,10.5615982 1132.49117,10.1994243 1132.33788,9.90354681 L1130.51559,6.38872431 L1130.51559,4.73005691 C1130.51559,4.32688298 1130.18906,4 1129.78554,4 C1129.38201,4 1129.05548,4.32688298 1129.05548,4.73005691 L1129.05548,6.56660268 C1129.05548,6.6835286 1129.08329,6.79866587 1129.13747,6.90275739 L1130.78081,10.0732266 L1128.92296,11.736216 C1129.21068,10.7860834 1129.1839,9.75021296 1128.34752,9.2055686 C1127.64884,8.75070664 1126.70133,8.68797285 1125.93206,9.04230597 C1125.77357,9.11555988 1125.62978,9.20441511 1125.50002,9.30480524 C1125.37026,9.20441511 1125.22647,9.11555988 1125.06797,9.04230597 C1124.2987,8.68761512 1123.35048,8.75071394 1122.65251,9.2055686 C1121.81613,9.75021296 1121.78936,10.7860834 1122.07707,11.736216 L1120.21922,10.0732266 L1121.86257,6.90275739 C1121.91675,6.79866587 1121.94455,6.6835286 1121.94455,6.56660268 L1121.94455,4.73005691 C1121.94455,4.32688298 1121.61802,4 1121.21449,4 C1120.81097,4 1120.48444,4.32688298 1120.48444,4.73005691 L1120.48444,6.38872431 L1118.66215,9.90354681 C1118.50887,10.199417 1118.57517,10.5615982 1118.82327,10.7836815 L1122.20879,13.81379 C1122.18646,14.2241769 1122.16512,14.697356 1122.14823,15.2109876 C1121.06107,14.8214949 1119.80241,14.4187225 1118.42879,14.0137745 L1117.1179,11.1294584 C1117.02165,10.9177127 1116.8313,10.7647877 1116.60387,10.71702 L1114.49498,10.2735689 C1114.10072,10.190868 1113.71287,10.442891 1113.63017,10.8378663 C1113.54747,11.2321263 1113.79985,11.6192536 1114.19411,11.7023121 L1115.94154,12.0698374 L1116.58609,13.4876225 C1108.78989,11.3278878 1098.55791,9.26372494 1095.33525,9.10255757 C1092.5348,8.96175149 1090.34748,9.83332994 1090.03379,11.2207228 C1089.96035,11.5444008 1089.85341,12.6558833 1091.5488,13.36206 C1093.47081,14.1630566 1105.24931,19.0862173 1110.23039,21.1683323 L1109.73606,21.2265689 C1105.75497,21.6899871 1097.47125,22.6545967 1094.12325,26.7123333 C1093.48801,27.4823171 1093.57499,28.1136265 1093.75965,28.5078864 C1093.86516,28.7326417 1094.08711,29.1920008 1095.1686,29.5906703 C1095.29551,29.6862056 1095.44701,29.7434201 1095.60546,29.7434201 C1095.61428,29.7434201 1095.62315,29.7406094 1095.63202,29.7403028 C1096.71668,30.0517743 1098.44678,30.2967595 1101.26127,30.3077176 C1101.43665,30.3084331 1101.61204,30.3091412 1101.78671,30.3091412 C1106.34885,30.3091412 1110.61156,30.0086352 1114.46432,29.415464 C1116.31922,29.1299752 1118.1138,28.35126 1119.66374,27.224001 L1119.88485,28.0466073 C1119.97254,28.3724244 1120.2677,28.587375 1120.58924,28.587375 C1120.65198,28.5870173 1120.71614,28.5791765 1120.77959,28.5620639 C1121.16886,28.4572643 1121.39986,28.0569449 1121.29505,27.6673135 L1120.90155,26.2034107 C1121.60674,25.5413075 1122.23525,24.799263 1122.7643,23.9960836 C1122.88674,24.4686786 1123.02955,24.9062456 1123.1979,25.2921317 C1123.99707,27.1229758 1124.44257,28.0642016 1124.76994,28.535322 L1124.76994,56.2896036 C1124.76994,56.6927775 1125.09648,57.0196605 1125.5,57.0196605 C1125.90353,57.0196605 1126.23006,56.6927775 1126.23006,56.2896036 L1126.23006,28.5309197 C1126.55779,28.0586386 1127.00547,27.117055 1127.8021,25.292139 C1127.97045,24.9062602 1128.11326,24.4686859 1128.23571,23.9960909 C1128.76476,24.7992703 1129.39326,25.5413148 1130.09845,26.203418 L1129.70495,27.6673208 C1129.60015,28.0569449 1129.83114,28.4572643 1130.22041,28.5620712 C1130.28386,28.5791838 1130.34802,28.5873823 1130.41077,28.5873823 C1130.7323,28.5870246 1131.02747,28.3724317 1131.11515,28.0466146 L1131.33626,27.2240083 C1132.88621,28.3512673 1134.68078,29.1299825 1136.53569,29.4154713 C1140.38702,30.0086425 1144.64688,30.3087908 1149.26677,30.3087908 C1149.44501,30.3087908 1149.62467,30.3084331 1149.80433,30.3073672 C1152.58785,30.2965405 1154.3011,30.0522196 1155.37676,29.7413322 C1155.38269,29.7414636 1155.38862,29.7434274 1155.39454,29.7434274 C1155.55019,29.7434274 1155.69919,29.6882643 1155.82481,29.5959778 C1156.91017,29.1961038 1157.13435,28.7336711 1157.24036,28.5078864 C1157.42501,28.1136265 1157.51199,27.4823098 1156.87675,26.7123333 C1153.52876,22.6545967 1145.24503,21.6899871 1141.26395,21.2265689 L1140.76961,21.1683323 C1145.7507,19.0862173 1157.52919,14.1631442 1159.4512,13.3624178 C1161.14659,12.6558906 1161.03965,11.5444081 1160.96622,11.2207301 C1160.65255,9.83261448 1158.46808,8.96389056 1155.66478,9.10255757 Z M1117.69255,15.3174883 C1117.69682,15.3187805 1117.70102,15.3200289 1117.70534,15.3212335 C1119.35532,15.8031878 1120.85513,16.2838865 1122.09072,16.7428514 L1122.11683,16.7522107 C1122.11482,17.0197474 1122.11465,17.2926207 1122.11683,17.5699182 C1122.03422,17.4922037 1121.93918,17.4269731 1121.82265,17.3937774 C1112.61535,14.7747274 1107.77539,14.1164497 1106.00567,13.9518511 C1106.03005,13.5050563 1106.01707,12.9346993 1105.88567,12.3753078 C1109.81944,13.2232032 1114.11414,14.2727549 1117.69255,15.3174883 Z M1095.48668,13.4240346 C1093.86496,12.7465125 1092.62808,12.2299389 1092.11061,12.014229 C1091.59016,11.7974897 1091.449,11.5814731 1091.45827,11.5426122 C1091.53242,11.2128747 1092.76938,10.4379047 1095.26256,10.5605323 C1096.85483,10.640291 1100.2006,11.1969229 1104.10812,12.0008178 C1104.52181,12.3924495 1104.58673,13.312146 1104.5387,13.9933694 C1103.1677,14.0739312 1099.2686,13.7780611 1095.78728,13.3916419 C1095.68301,13.3791653 1095.58186,13.3931969 1095.48668,13.4240346 Z M1109.1675,19.1412854 C1110.85321,19.2847197 1112.97926,19.5251202 1115.37075,19.9290023 C1114.48425,20.1979625 1113.60359,20.4497664 1112.79381,20.6570077 C1112.28699,20.4451306 1110.94251,19.8831912 1109.1675,19.1412854 Z M1095.58235,28.2053289 C1095.272,28.0864027 1095.12152,27.9791938 1095.08717,27.9150729 C1095.08717,27.9143575 1095.09786,27.8248817 1095.24972,27.6413016 C1097.36508,25.0773709 1102.11285,23.8580955 1105.9387,23.2194783 C1101.64988,25.1393892 1096.85095,27.5605135 1095.58235,28.2053289 Z M1103.55724,28.8315133 C1105.22985,27.7824143 1107.86513,26.5024055 1110.64174,26.5704906 C1109.15239,27.4858213 1108.14331,28.3466607 1107.79254,28.6619211 C1106.42065,28.7506814 1105.00683,28.8064724 1103.55724,28.8315133 Z M1112.23993,23.672683 C1112.31979,24.0081222 1112.61922,24.2337682 1112.94932,24.2337682 C1113.00564,24.2337682 1113.06196,24.227351 1113.119,24.2138085 L1118.60842,22.9068898 C1118.57562,23.0306271 1118.57197,23.1609204 1118.60512,23.285198 L1119.25519,25.7038254 C1117.79708,26.8795602 1116.05219,27.693705 1114.24189,27.9724627 C1113.02342,28.1601895 1111.75656,28.3150346 1110.4537,28.4434516 C1112.05421,27.3352179 1114.59235,25.9049634 1117.55067,25.4496999 C1117.94921,25.3883897 1118.22227,25.0155132 1118.16096,24.6173328 C1118.09965,24.2187948 1117.73462,23.9446657 1117.32824,24.0066913 C1115.65219,24.2645547 1114.11268,24.7996645 1112.77555,25.4210452 C1112.72159,25.3924416 1112.67075,25.3588881 1112.60854,25.3441775 C1107.25004,24.0788794 1102.10221,27.9516415 1101.00512,28.8446106 C1099.72511,28.833959 1098.70074,28.7706412 1097.88977,28.679917 C1101.61304,26.8223383 1109.61773,22.9196658 1112.46951,22.2442828 C1112.47682,22.2425453 1112.4819,22.2372013 1112.48912,22.2352374 C1114.6354,21.7292204 1117.38867,20.8482023 1119.46396,20.1460847 L1119.10856,21.2872001 L1112.78107,22.7936142 C1112.38895,22.8870176 1112.14654,23.2805621 1112.23993,23.672683 Z M1118.30247,18.9936168 C1111.01764,17.4867575 1105.43161,17.4682651 1105.19602,17.4682651 C1105.1885,17.4682651 1105.1823,17.4723169 1105.17486,17.4725433 C1103.44115,16.7479253 1101.60344,15.9799492 1099.86274,15.2525205 C1101.27646,15.3667233 1102.73676,15.4566882 1103.83643,15.4566882 C1104.44667,15.4566882 1104.93455,15.4267413 1105.25257,15.3603061 C1105.84583,15.3910999 1110.22889,15.7062655 1120.02468,18.4091771 C1119.51391,18.5857632 1118.93098,18.7844993 1118.30247,18.9936168 Z M1122.17056,22.1034841 C1121.72925,23.0014395 1121.14642,23.8316237 1120.46332,24.5729965 L1120.07021,23.1105246 L1121.17779,19.5549284 C1121.59361,19.408771 1121.92852,19.2890855 1122.15649,19.2070125 C1122.19138,20.0322469 1122.25046,20.8635846 1122.34484,21.6610623 C1122.25745,21.86523 1122.1977,22.0251928 1122.17056,22.1034841 Z M1125.52212,12.8718998 C1126.1046,12.8544295 1126.78618,12.8790325 1127.26955,12.9029126 C1127.28537,13.1308802 1127.30368,13.4230052 1127.32195,13.7514067 C1125.66983,13.588896 1124.41198,13.6549808 1123.67915,13.7325128 C1123.69707,13.4123974 1123.71498,13.1263319 1123.73048,12.9029126 C1124.21815,12.878317 1124.91185,12.8533637 1125.52212,12.8718998 Z M1123.44959,10.4289907 C1123.77613,10.217245 1124.19035,10.2454106 1124.45556,10.3680309 C1124.55822,10.4154408 1124.72933,10.5188169 1124.76997,10.693848 L1124.76997,11.4086686 C1124.3058,11.4147719 1123.85472,11.4337096 1123.52298,11.4515814 C1123.36034,10.9757741 1123.31466,10.5169552 1123.44959,10.4289907 Z M1126.46322,24.7082322 C1126.02689,25.7092132 1125.71747,26.3786681 1125.50002,26.825682 C1125.28258,26.3786681 1124.97316,25.7092059 1124.53683,24.7082322 C1124.34732,24.2740017 1124.1964,23.7531499 1124.07127,23.1847568 C1124.49418,23.2383648 1125.03241,23.286972 1125.61979,23.286972 C1126.04315,23.286972 1126.48829,23.2569375 1126.92751,23.1905899 C1126.80262,23.7567198 1126.65205,24.2754764 1126.46322,24.7082322 Z M1127.36304,19.5932929 C1127.09288,19.2982696 1126.63534,19.2747398 1126.33773,19.5432986 C1126.03829,19.8127918 1126.01406,20.2744214 1126.28355,20.5742192 C1126.60888,20.9358602 1126.86019,21.3363622 1127.04823,21.6878846 C1125.9355,21.936082 1124.61771,21.7956264 1123.94905,21.6932797 C1124.13735,21.3403702 1124.38947,20.9376927 1124.71649,20.5742192 C1124.98598,20.2744287 1124.96175,19.8127918 1124.6623,19.5432986 C1124.36398,19.274696 1123.90783,19.2989777 1123.637,19.5933367 C1123.59631,18.8131979 1123.57956,18.0306061 1123.57907,17.277107 L1124.07982,17.4568616 C1124.45768,17.5916082 1124.87761,17.3959019 1125.01378,17.0162577 C1125.14996,16.6366135 1124.95247,16.2188238 1124.57318,16.0822959 L1123.59818,15.7323285 C1123.60268,15.5561001 1123.607,15.3783969 1123.61267,15.2109438 C1124.21444,15.1345214 1125.55349,15.0332406 1127.38789,15.231086 C1127.39329,15.3923921 1127.39747,15.562875 1127.40184,15.7323285 L1126.42684,16.0822959 C1126.04755,16.2188238 1125.85006,16.6366135 1125.98623,17.0162577 C1126.1224,17.3955442 1126.54162,17.5916082 1126.9202,17.4568616 L1127.42095,17.277107 C1127.42047,18.0306061 1127.40372,18.813103 1127.36304,19.5932929 Z M1127.47716,11.4513113 C1127.1435,11.4330452 1126.69015,11.4138813 1126.23008,11.4082233 L1126.23008,10.693848 C1126.27072,10.5188169 1126.44183,10.4154408 1126.54449,10.3680309 C1126.8097,10.2454033 1127.22392,10.217245 1127.55045,10.4289907 C1127.68538,10.5169552 1127.63975,10.9756427 1127.47716,11.4513113 Z M1128.91717,16.7399895 C1130.15008,16.2820541 1131.64686,15.8022899 1133.29381,15.3211823 C1133.29871,15.3198025 1133.30343,15.3184227 1133.3083,15.316948 C1136.8852,14.2727038 1141.18011,13.2231156 1145.11442,12.3751545 C1144.98302,12.9345971 1144.97001,13.5049979 1144.99438,13.9518365 C1143.22467,14.1164351 1138.3847,14.7747128 1129.17739,17.3937628 C1129.06087,17.4269585 1128.96583,17.4921964 1128.88322,17.5699036 C1128.8854,17.2925696 1128.88522,17.019689 1128.88322,16.7521523 L1128.91717,16.7399895 Z M1130.53672,24.5729965 C1129.85363,23.8316237 1129.2708,23.0014395 1128.82948,22.1034841 C1128.80235,22.0251928 1128.74259,21.86523 1128.65521,21.661055 C1128.74959,20.8635773 1128.80868,20.0322396 1128.84357,19.2070052 C1129.07153,19.2890855 1129.40644,19.408771 1129.82227,19.5549211 L1130.92981,23.1105173 L1130.53672,24.5729965 Z M1143.19918,28.6544818 C1142.84115,28.3333444 1141.83621,27.4787471 1140.35773,26.5701402 C1143.11349,26.503705 1145.73927,27.7714561 1147.41594,28.8176131 C1145.97847,28.7906521 1144.56541,28.7423077 1143.19918,28.6544818 Z M1155.75033,27.6412943 C1155.88366,27.8027756 1155.90789,27.8915359 1155.91573,27.8922513 C1155.87541,27.965549 1155.72039,28.0779267 1155.40705,28.19989 C1154.1229,27.5472775 1149.33862,25.1342204 1145.06135,23.219471 C1148.88724,23.8580882 1153.63497,25.0773636 1155.75033,27.6412943 Z M1153.10548,28.6775662 C1152.29597,28.7685094 1151.27142,28.8316521 1149.99418,28.8441287 C1148.89508,27.9504953 1143.74627,24.0804417 1138.39151,25.3441848 C1138.32931,25.3588881 1138.27847,25.3924416 1138.22451,25.4210525 C1136.88738,24.7997229 1135.34786,24.264562 1133.67181,24.0066986 C1133.2747,23.9457389 1132.90041,24.2184443 1132.8391,24.6173401 C1132.77779,25.0155205 1133.05084,25.3883897 1133.44938,25.4497072 C1136.38792,25.9018461 1138.92021,27.3239531 1140.52479,28.4311136 C1139.23418,28.3046094 1137.96861,28.1588608 1136.75817,27.97247 C1134.94786,27.693705 1133.20297,26.8795675 1131.74486,25.7038327 L1132.39494,23.2852053 C1132.42809,23.1609277 1132.42444,23.0306417 1132.39164,22.9068971 L1137.88106,24.2138158 C1137.93809,24.2273583 1137.99441,24.2337755 1138.05074,24.2337755 C1138.38083,24.2337755 1138.68027,24.0081295 1138.76012,23.6726903 C1138.85352,23.2805694 1138.61112,22.8870249 1138.21899,22.7936288 L1131.89151,21.2872147 L1131.5361,20.1460993 C1133.6114,20.8482169 1136.36466,21.7292423 1138.51094,22.235252 C1138.51816,22.2372159 1138.52325,22.2425599 1138.53055,22.2442974 C1141.38108,22.9193665 1149.38016,26.819002 1153.10548,28.6775662 Z M1138.20624,20.6570077 C1137.39656,20.4498102 1136.51598,20.1980063 1135.62956,19.9290899 C1138.01892,19.5257845 1140.14501,19.2852965 1141.83126,19.1418184 C1140.05691,19.8834175 1138.71297,20.4451744 1138.20624,20.6570077 Z M1145.82528,17.4725433 C1145.81779,17.4723169 1145.81155,17.4682651 1145.80402,17.4682651 C1145.56844,17.4682651 1139.98242,17.4867575 1132.69757,18.9936168 C1132.06907,18.7844993 1131.48615,18.5857705 1130.97536,18.4091771 C1140.77124,15.7062655 1145.15435,15.3910999 1145.74752,15.3603061 C1146.06554,15.4267413 1146.55337,15.4566882 1147.16361,15.4566882 C1148.26324,15.4566882 1149.72371,15.3667233 1151.13753,15.2525205 C1149.39678,15.9799054 1147.55907,16.7479253 1145.82528,17.4725433 Z M1158.88943,12.0145867 C1158.37241,12.2300265 1157.1371,12.745892 1155.51742,13.4225233 C1155.42206,13.3921311 1155.3198,13.3786761 1155.21276,13.3916419 C1151.72788,13.7787692 1147.82807,14.0753548 1146.45992,13.9933694 C1146.4105,13.3133068 1146.47418,12.394501 1146.89179,12.000774 C1150.79913,11.1970178 1154.14512,10.640291 1155.73749,10.5605323 C1158.21855,10.4393283 1159.46763,11.2125243 1159.54177,11.5426122 C1159.55105,11.5814731 1159.40988,11.7974897 1158.88943,12.0145867 Z" id="XMLID_1546_"></path>
            </g>
        </g>
    </g>
</svg>